<?xml version="1.0" encoding="utf-8"?>
<!-- Generator: Adobe Illustrator 25.0.0, SVG Export Plug-In . SVG Version: 6.00 Build 0)  -->
<svg version="1.1" id="Layer_1" xmlns="http://www.w3.org/2000/svg" xmlns:xlink="http://www.w3.org/1999/xlink" x="0px" y="0px"
	 viewBox="0 0 190 190" style="enable-background:new 0 0 190 190;" xml:space="preserve">
<style type="text/css">
	.st0{fill-rule:evenodd;clip-rule:evenodd;fill:#FFFFFF;}
	.st1{fill-rule:evenodd;clip-rule:evenodd;fill:#FFFFFF;stroke:#363078;stroke-width:0.9216;stroke-miterlimit:2.6131;}
	.st2{fill-rule:evenodd;clip-rule:evenodd;fill:#363078;stroke:#363078;stroke-width:0.6149;stroke-miterlimit:2.6131;}
	.st3{fill-rule:evenodd;clip-rule:evenodd;fill:#FFFFFF;stroke:#363078;stroke-width:0.3063;stroke-miterlimit:2.6131;}
	.st4{fill-rule:evenodd;clip-rule:evenodd;fill:#FFFFFF;stroke:#FFFFFF;stroke-width:0.1543;stroke-miterlimit:2.6131;}
	.st5{fill:none;stroke:#FFFFFF;stroke-width:1.8439;stroke-miterlimit:2.6131;}
	.st6{fill-rule:evenodd;clip-rule:evenodd;fill:#FFFFFF;stroke:#FFFFFF;stroke-width:0.3388;stroke-miterlimit:2.6131;}
	.st7{fill:none;stroke:#040607;stroke-width:0.3063;stroke-miterlimit:2.6131;}
	.st8{fill-rule:evenodd;clip-rule:evenodd;fill:#FFFFFF;stroke:#FFFFFF;stroke-width:0.6149;stroke-miterlimit:2.6131;}
	.st9{fill-rule:evenodd;clip-rule:evenodd;fill:#FFFFFF;stroke:#363078;stroke-width:0.1662;stroke-miterlimit:2.6131;}
	.st10{fill:none;stroke:#FFFFFF;stroke-width:0.6149;stroke-miterlimit:2.6131;}
	.st11{fill-rule:evenodd;clip-rule:evenodd;fill:#FFFFFF;stroke:#FFFFFF;stroke-width:0.3063;stroke-miterlimit:2.6131;}
	.st12{fill-rule:evenodd;clip-rule:evenodd;fill:#FFFFFF;stroke:#FFFFFF;stroke-width:0.738;stroke-miterlimit:2.6131;}
	.st13{fill-rule:evenodd;clip-rule:evenodd;fill:#FFFFFF;stroke:#FFFFFF;stroke-width:0.7591;stroke-miterlimit:2.6131;}
	.st14{fill-rule:evenodd;clip-rule:evenodd;fill:#FFFFFF;stroke:#FFFFFF;stroke-width:0.3316;stroke-miterlimit:2.6131;}
	.st15{fill-rule:evenodd;clip-rule:evenodd;fill:#FED65A;stroke:#FED65A;stroke-width:0.2745;stroke-miterlimit:2.6131;}
</style>
<g>
	<polygon class="st0" points="-1.11,-1.85 191.64,-1.85 191.64,190.9 -1.11,190.9 -1.11,-1.85 	"/>
	<path class="st1" d="M155.56,67.09V182.4H34.97V63.83C36.32,31.98,62.86,6.65,95.36,6.65C128.44,6.65,155.56,33.71,155.56,67.09
		L155.56,67.09z"/>
	<path class="st2" d="M43.24,173.96H146.9V70.35c0-29.16-22.31-54.49-51.74-54.49C65.74,15.67,43.24,41,43.24,70.35V173.96
		L43.24,173.96z"/>
	<polygon class="st0" points="104.98,24.88 105.75,24.88 105.75,26.99 104.98,26.99 104.98,24.88 	"/>
	<polygon class="st3" points="102.86,37.35 98.24,37.35 98.24,48.29 107.28,48.29 107.28,37.35 102.86,37.35 	"/>
	<polygon class="st3" points="106.71,27.95 106.71,33.9 107.28,36.2 98.44,36.2 99.01,33.9 99.01,27.95 106.71,27.95 	"/>
	<polygon class="st4" points="103.05,51.55 97.67,51.55 97.28,51.93 96.71,88.96 109.01,88.96 108.44,51.93 108.25,51.55 
		103.05,51.55 	"/>
	<path class="st2" d="M99.98,57.11c0-1.92,1.35-3.07,2.89-3.07c1.73,0,2.88,1.15,2.88,3.07c0,1.54-1.15,2.69-2.88,2.69
		C101.32,59.8,99.98,58.65,99.98,57.11L99.98,57.11z"/>
	<path class="st5" d="M47.47,131.94h9.04 M94.59,131.75h47.12"/>
	<path class="st6" d="M61.7,125.99c0,0,3.46-4.03,5.77-3.84c4.04,0.38,3.08,1.73,6.54,3.26c1.35,0.38,3.08,0,3.08,0
		s-0.77,1.73-3.85,1.73c-1.73,0-4.62-2.69-6.92-3.45C64.97,123.31,61.7,125.99,61.7,125.99L61.7,125.99z"/>
	<path class="st6" d="M46.89,125.99c0,0,3.27-4.03,5.58-3.84c4.23,0.38,3.08,1.73,6.73,3.26c1.35,0.38,3.08,0,3.08,0
		s-0.77,1.73-3.85,1.73c-1.92,0.19-4.62-2.69-6.92-3.45C50.16,123.31,46.89,125.99,46.89,125.99L46.89,125.99z"/>
	<path class="st6" d="M74.59,133.09c0,0,3.46-4.22,5.77-4.03c4.23,0.38,3.08,1.73,6.73,3.26c1.15,0.58,3.08,0,3.08,0
		s-0.77,1.73-4.04,1.92c-1.73,0-4.42-2.88-6.92-3.45C77.86,130.21,74.59,133.09,74.59,133.09L74.59,133.09z"/>
	<path class="st6" d="M59.78,133.09c0,0,3.27-4.03,5.58-3.84c4.23,0.38,3.27,1.53,6.73,3.07c1.35,0.58,3.08,0,3.08,0
		s-0.77,1.73-3.85,1.92c-1.73,0-4.62-2.88-6.92-3.45C63.05,130.41,59.78,133.09,59.78,133.09L59.78,133.09z"/>
	<path class="st6" d="M127.09,128.1c0,0,2.89-4.6,5.19-4.41c4.23,0.38,2.5,1.34,5.96,2.88c1.35,0.58,3.08-0.77,3.08-0.77
		s0,2.69-3.08,2.88c-1.73,0-4.23-2.3-6.54-2.88C130.36,125.42,127.09,128.1,127.09,128.1L127.09,128.1z"/>
	<path class="st6" d="M48.82,119.09c0,0,3.27-4.03,5.58-3.84c4.23,0.38,3.08,1.53,6.73,3.07c1.35,0.58,3.08,0,3.08,0
		s-0.77,1.73-3.85,1.92c-1.73,0-4.62-2.69-6.92-3.45C52.09,116.4,48.82,119.09,48.82,119.09L48.82,119.09z"/>
	<line class="st7" x1="102.86" y1="23.92" x2="99.78" y2="23.92"/>
	<path class="st3" d="M103.05,23.92h3.08c0,0,0-2.69-3.08-2.69c-3.27,0-3.27,2.69-3.27,2.69H103.05L103.05,23.92z"/>
	<polygon class="st2" points="103.05,33.9 104.21,33.9 104.21,30.83 101.51,30.83 101.51,33.9 103.05,33.9 	"/>
	<path class="st2" d="M103.82,46.18h2.12v-4.22c0-0.58-0.38-1.15-0.96-1.15c-0.58,0-1.15,0.58-1.15,1.15V46.18L103.82,46.18z"/>
	<polygon class="st8" points="120.75,105.65 128.25,105.65 128.25,107.96 120.75,107.96 120.75,105.65 	"/>
	<polygon class="st4" points="103.05,119.85 120.55,119.85 120.55,120.81 103.05,120.81 85.17,120.81 85.17,119.85 103.05,119.85 	
		"/>
	<polygon class="st0" points="103.05,121.58 122.48,121.58 122.48,122.54 83.44,122.54 83.44,121.58 103.05,121.58 	"/>
	<polygon class="st3" points="85.17,108.92 85.17,119.28 84.2,119.28 84.2,120.81 82.28,120.81 82.28,123.11 77.86,123.11 
		77.86,108.92 85.17,108.92 	"/>
	<polygon class="st3" points="120.36,108.92 120.36,119.28 121.32,119.28 121.32,120.81 123.25,120.81 123.25,123.11 127.67,123.11 
		127.67,108.92 120.36,108.92 	"/>
	<polygon class="st9" points="102.86,105.46 113.82,105.46 113.82,118.7 105.17,118.7 105.17,111.79 100.36,111.79 100.36,118.7 
		91.71,118.7 91.71,105.46 102.86,105.46 	"/>
	<polygon class="st0" points="103.05,57.3 103.24,57.3 101.13,55.96 103.05,57.3 	"/>
	<polygon class="st0" points="103.05,57.3 103.24,57.3 101.13,55.96 103.05,57.3 	"/>
	<line class="st10" x1="101.13" y1="55.96" x2="103.05" y2="57.3"/>
	<polygon class="st8" points="86.13,105.65 90.55,105.65 90.55,118.51 86.13,118.51 86.13,105.65 	"/>
	<polygon class="st11" points="114.98,105.65 119.59,105.65 119.59,118.51 114.98,118.51 114.98,105.65 	"/>
	<polygon class="st3" points="114.02,97.4 114.02,100.47 114.98,100.47 114.98,97.98 119.4,97.98 119.4,104.5 86.13,104.5 
		86.13,97.98 90.55,97.98 90.55,100.47 91.71,100.47 91.71,97.4 114.02,97.4 	"/>
	<polygon class="st12" points="85.36,101.05 86.13,101.05 86.13,101.82 85.36,101.82 85.36,101.05 	"/>
	<polygon class="st12" points="119.4,101.05 120.17,101.05 120.17,101.82 119.4,101.82 119.4,101.05 	"/>
	<polygon class="st3" points="102.86,90.31 96.71,90.31 95.94,91.84 95.94,95.1 109.78,95.1 109.78,91.84 109.01,90.31 
		102.86,90.31 	"/>
	<line class="st5" x1="95.17" y1="95.87" x2="110.36" y2="95.87"/>
	<polygon class="st13" points="102.67,49.63 96.9,49.63 97.86,50.4 107.67,50.4 108.44,49.63 102.67,49.63 	"/>
	<path class="st2" d="M99.59,46.18h2.12v-4.22c0-0.58-0.38-1.15-0.96-1.15c-0.58,0-1.15,0.58-1.15,1.15V46.18L99.59,46.18z"/>
	<line class="st10" x1="103.05" y1="57.3" x2="103.05" y2="53.47"/>
	<path class="st2" d="M101.51,30.83c0-0.58,0.58-1.34,1.35-1.34c0.77,0,1.35,0.77,1.35,1.34c0,0.77-0.58,1.34-1.35,1.34
		C102.09,32.17,101.51,31.59,101.51,30.83L101.51,30.83z"/>
	<path class="st8" d="M101.9,19.7c0-0.38,0.38-0.77,0.96-0.77c0.58,0,0.96,0.38,0.96,0.77c0,0.58-0.38,0.96-0.96,0.96
		C102.28,20.66,101.9,20.27,101.9,19.7L101.9,19.7z"/>
	<polygon class="st1" points="103.24,64.02 99.21,64.02 98.82,87.04 107.09,87.04 106.71,64.02 103.24,64.02 	"/>
	<polygon class="st0" points="99.78,24.88 100.74,24.88 100.74,26.99 99.78,26.99 99.78,24.88 	"/>
	<polygon class="st8" points="101.71,24.88 104.01,24.88 104.01,26.99 101.71,26.99 101.71,24.88 	"/>
	<polygon class="st14" points="77.67,105.65 84.78,105.65 84.78,107.96 77.67,107.96 77.67,105.65 	"/>
	<polygon class="st4" points="102.86,121.77 122.28,121.77 122.28,123.31 83.05,123.31 83.05,121.77 102.86,121.77 	"/>
	<path class="st15" d="M53.05,163.21c0,1.15-0.19,2.49-1.92,3.26c-0.96,0.38-1.73,0.58-1.73,0.96c0,0.58,0.96,0.58,1.92,0.58
		c1.73,0,3.65-0.19,5.39-0.19c3.08,0,9.62,0.19,12.89,0.19c3.65,0,7.5-2.11,7.5-4.99c0-0.77-0.38-1.53-1.15-1.53
		c-1.15,0-1.73,1.15-3.27,2.3c-1.54,1.15-4.42,2.3-9.42,2.3c-2.5,0-3.08-0.19-3.08-2.88v-15.16c0-1.15,0.58-2.49,2.5-2.88
		c0.58-0.19,1.35-0.38,1.35-0.96c0-0.58-0.77-0.58-1.35-0.58c-1.92,0-4.23,0.38-6.54,0.38c-2.31,0-4.62-0.38-6.92-0.38
		c-0.58,0-0.77,0.38-0.77,0.77c0,0.38,0.38,0.77,0.96,0.77c1.92,0,3.65,0.58,3.65,2.88V163.21L53.05,163.21z"/>
	<path class="st15" d="M108.63,158.99c0,6.72,5.19,9.4,13.85,9.4c10.77,0,16.35-4.03,16.35-11.7v-7.48c0-3.07,0.38-3.65,1.73-4.03
		c0.77-0.38,1.73-0.38,1.73-0.96c0-0.38-0.19-0.58-1.15-0.58c-1.35,0-2.89,0.19-4.23,0.19c-1.54,0-2.88-0.19-4.42-0.19
		c-1.15,0-1.73,0.19-1.73,0.58c0,0.58,0.77,0.77,1.54,0.96c2.69,0,3.85,1.15,3.85,2.88v9.02c0,3.84-2.12,8.83-10.58,8.83
		c-5.96,0-9.62-2.88-9.62-6.91v-10.94c0-1.34,0.77-2.3,2.31-2.88c0.77-0.38,1.35-0.58,1.35-0.96c0-0.38-0.19-0.58-1.35-0.58
		c-1.92,0-3.85,0.38-5.77,0.38s-3.65-0.38-5.58-0.38c-2.5,0-2.89,0.19-2.89,0.77c0,0.38,0.38,0.77,0.96,0.77
		c2.12,0,3.65,0.58,3.65,2.88V158.99L108.63,158.99z"/>
	<path class="st15" d="M81.13,166.86c0.19,0.38,0.96,0.58,1.54,0.58c3.08,0.38,5.96,1.15,9.42,1.15c7.5,0,11.54-4.41,11.54-7.87
		c0-9.59-19.04-6.52-19.04-12.47c0-2.11,2.69-3.26,5.77-3.26c3.85,0,8.27,2.3,9.42,4.99c0.38,0.77,0.58,1.34,1.54,1.34
		c0.77,0,1.15-0.38,1.15-0.77c0-0.38-0.96-3.65-0.77-5.56c0-0.58-0.19-0.77-0.77-0.77c-0.58,0-1.73,0.58-2.31,0.58
		c-1.54,0-4.23-1.34-8.65-1.34c-5.96,0-10.39,3.26-10.39,6.91c0,9.59,19.04,6.72,19.04,12.47c0,2.69-2.88,4.22-6.54,4.22
		c-4.81,0-8.46-2.49-10.39-5.37c-0.38-0.38-0.58-1.34-1.54-1.34c-0.96,0-1.15,0.19-1.15,0.38c0,0.38,0.19,0.96,0.38,1.15
		L81.13,166.86L81.13,166.86z"/>
</g>
</svg>
